HIERARCHY
ROOT hip
{
  OFFSET -30.1546 83.6712 -21.5431
  CHANNELS 6 Xposition Yposition Zposition Zrotation Xrotation Yrotation
  JOINT abdomen
  {
    OFFSET 0 20.6881 -0.73152
    CHANNELS 3 Zrotation Xrotation Yrotation
    JOINT chest
    {
      OFFSET 0 11.7043 -0.48768
      CHANNELS 3 Zrotation Xrotation Yrotation
      JOINT neck
      {
        OFFSET 0 22.1894 -2.19456
        CHANNELS 3 Zrotation Xrotation Yrotation
        JOINT head
        {
          OFFSET -0.24384 7.07133 1.2192
          CHANNELS 3 Zrotation Xrotation Yrotation
          JOINT leftEye
          {
            OFFSET 4.14528 8.04674 8.04672
            CHANNELS 3 Zrotation Xrotation Yrotation
            End Site
            {
              OFFSET 1 0 0
            }
          }
          JOINT rightEye
          {
            OFFSET -3.6576 8.04674 8.04672
            CHANNELS 3 Zrotation Xrotation Yrotation
            End Site
            {
              OFFSET 1 0 0
            }
          }
        }
      }
      JOINT rCollar
      {
        OFFSET -2.68224 19.2634 -4.8768
        CHANNELS 3 Zrotation Xrotation Yrotation
        JOINT rShldr
        {
          OFFSET -8.77824 -1.95073 1.46304
          CHANNELS 3 Zrotation Xrotation Yrotation
          JOINT rForeArm
          {
            OFFSET -28.1742 -1.7115 0.48768
            CHANNELS 3 Zrotation Xrotation Yrotation
            JOINT rHand
            {
              OFFSET -22.5879 0.773209 7.07136
              CHANNELS 3 Zrotation Xrotation Yrotation
              JOINT rThumb1
              {
                OFFSET -1.2192 -0.487915 3.41376
                CHANNELS 3 Zrotation Xrotation Yrotation
                JOINT rThumb2
                {
                  OFFSET -3.37035 -0.52449 3.41376
                  CHANNELS 3 Zrotation Xrotation Yrotation
                  End Site
                  {
                    OFFSET -1.78271 -1.18214 1.43049
                  }
                }
              }
              JOINT rIndex1
              {
                OFFSET -7.75947 0.938293 5.60832
                CHANNELS 3 Zrotation Xrotation Yrotation
                JOINT rIndex2
                {
                  OFFSET -2.54057 -0.884171 1.56538
                  CHANNELS 3 Zrotation Xrotation Yrotation
                  End Site
                  {
                    OFFSET -1.62519 -0.234802 1.16502
                  }
                }
              }
              JOINT rMid1
              {
                OFFSET -8.24714 1.18213 3.41376
                CHANNELS 3 Zrotation Xrotation Yrotation
                JOINT rMid2
                {
                  OFFSET -3.10165 -0.590103 1.0647
                  CHANNELS 3 Zrotation Xrotation Yrotation
                  End Site
                  {
                    OFFSET -2.48547 -0.328903 0.83742
                  }
                }
              }
              JOINT rRing1
              {
                OFFSET -8.82822 0.546677 1.51678
                CHANNELS 3 Zrotation Xrotation Yrotation
                JOINT rRing2
                {
                  OFFSET -2.60934 -0.819778 -0.0198488
                  CHANNELS 3 Zrotation Xrotation Yrotation
                  End Site
                  {
                    OFFSET -2.33842 -0.294052 0.168128
                  }
                }
              }
              JOINT rPinky1
              {
                OFFSET -8.27202 -0.0477905 -0.4584
                CHANNELS 3 Zrotation Xrotation Yrotation
                JOINT rPinky2
                {
                  OFFSET -1.82734 -0.647385 -0.700984
                  CHANNELS 3 Zrotation Xrotation Yrotation
                  End Site
                  {
                    OFFSET -1.69225 -0.51767 -0.607171
                  }
                }
              }
            }
          }
        }
      }
      JOINT lCollar
      {
        OFFSET 2.68224 19.2634 -4.8768
        CHANNELS 3 Zrotation Xrotation Yrotation
        JOINT lShldr
        {
          OFFSET 8.77824 -1.95073 1.46304
          CHANNELS 3 Zrotation Xrotation Yrotation
          JOINT lForeArm
          {
            OFFSET 28.1742 -1.7115 0.48768
            CHANNELS 3 Zrotation Xrotation Yrotation
            JOINT lHand
            {
              OFFSET 22.5879 0.773209 7.07136
              CHANNELS 3 Zrotation Xrotation Yrotation
              JOINT lThumb1
              {
                OFFSET 1.2192 -0.487915 3.41376
                CHANNELS 3 Zrotation Xrotation Yrotation
                JOINT lThumb2
                {
                  OFFSET 3.37035 -0.52449 3.41376
                  CHANNELS 3 Zrotation Xrotation Yrotation
                  End Site
                  {
                    OFFSET 1.78271 -1.18214 1.43049
                  }
                }
              }
              JOINT lIndex1
              {
                OFFSET 7.75947 0.938293 5.60832
                CHANNELS 3 Zrotation Xrotation Yrotation
                JOINT lIndex2
                {
                  OFFSET 2.54057 -0.884171 1.56538
                  CHANNELS 3 Zrotation Xrotation Yrotation
                  End Site
                  {
                    OFFSET 1.62519 -0.234802 1.16502
                  }
                }
              }
              JOINT lMid1
              {
                OFFSET 8.24714 1.18213 3.41376
                CHANNELS 3 Zrotation Xrotation Yrotation
                JOINT lMid2
                {
                  OFFSET 3.10165 -0.590103 1.0647
                  CHANNELS 3 Zrotation Xrotation Yrotation
                  End Site
                  {
                    OFFSET 2.48547 -0.328903 0.83742
                  }
                }
              }
              JOINT lRing1
              {
                OFFSET 8.82822 0.546677 1.51678
                CHANNELS 3 Zrotation Xrotation Yrotation
                JOINT lRing2
                {
                  OFFSET 2.60934 -0.819778 -0.0198488
                  CHANNELS 3 Zrotation Xrotation Yrotation
                  End Site
                  {
                    OFFSET 2.33842 -0.294052 0.168128
                  }
                }
              }
              JOINT lPinky1
              {
                OFFSET 8.27202 -0.0477905 -0.4584
                CHANNELS 3 Zrotation Xrotation Yrotation
                JOINT lPinky2
                {
                  OFFSET 1.82734 -0.647385 -0.700984
                  CHANNELS 3 Zrotation Xrotation Yrotation
                  End Site
                  {
                    OFFSET 1.69225 -0.51767 -0.607171
                  }
                }
              }
            }
          }
        }
      }
    }
  }
  JOINT rButtock
  {
    OFFSET -8.77824 4.35084 1.2192
    CHANNELS 3 Zrotation Xrotation Yrotation
    JOINT rThigh
    {
      OFFSET 0 -1.70687 -2.19456
      CHANNELS 3 Zrotation Xrotation Yrotation
      JOINT rShin
      {
        OFFSET 0 -36.8199 0.73152
        CHANNELS 3 Zrotation Xrotation Yrotation
        JOINT rFoot
        {
          OFFSET 0.73152 -45.1104 -5.12064
          CHANNELS 3 Zrotation Xrotation Yrotation
          End Site
          {
            OFFSET -1.1221 -3.69964 12.103
          }
        }
      }
    }
  }
  JOINT lButtock
  {
    OFFSET 8.77824 4.35084 1.2192
    CHANNELS 3 Zrotation Xrotation Yrotation
    JOINT lThigh
    {
      OFFSET 0 -1.70687 -2.19456
      CHANNELS 3 Zrotation Xrotation Yrotation
      JOINT lShin
      {
        OFFSET 0 -36.8199 0.73152
        CHANNELS 3 Zrotation Xrotation Yrotation
        JOINT lFoot
        {
          OFFSET -0.73152 -45.1104 -5.12064
          CHANNELS 3 Zrotation Xrotation Yrotation
          End Site
          {
            OFFSET 1.1221 -3.69964 12.103
          }
        }
      }
    }
  }
}
MOTION
Frames:	4
Frame Time:	0.00833333
-35.6303 84.1002 6.59976 1.15515 0.0031186 -0.021656 -1.51927 -0.00282942 -0.0413936 -0.418701 0.00102617 -0.0725116 5.21843e-015 -7.95139e-016 3.23025e-016 1.60581e-014 -6.36111e-015 9.95476e-016 -0 0 0 -0 0 0 2.78109e-015 -1.15699e-016 2.98177e-016 5.68828e-014 -2.44132e-015 4.37326e-015 9.27977e-013 -3.70733e-013 5.725e-014 1.07997e-011 -1.54282e-013 6.64736e-013 2.5442e-011 -1.13944e-012 1.58074e-012 4.3931e-011 -1.96558e-012 2.72971e-012 2.54464e-011 -1.13864e-012 1.56801e-012 7.73091 5.47488 0.417314 2.54413e-011 -1.13953e-012 1.58392e-012 2.90554 0.965183 0.102902 2.5449e-011 -1.13874e-012 1.58074e-012 10.2786 0.731801 0.0259123 2.54359e-011 -1.13824e-012 1.59028e-012 2.22167 -0.733487 -0.20892 2.68567e-015 -1.14534e-016 -4.96962e-017 5.3278e-014 -2.36678e-015 2.78299e-015 9.55409e-013 1.98983e-013 5.08889e-014 1.07764e-011 -7.15749e-013 6.83819e-013 2.54553e-011 -1.12453e-012 1.5871e-012 4.39688e-011 -1.94332e-012 2.74482e-012 2.54512e-011 -1.12552e-012 1.59346e-012 -7.73091 5.47488 -0.417314 2.54542e-011 -1.12472e-012 1.58074e-012 -2.90554 0.965183 -0.102902 2.54513e-011 -1.12383e-012 1.58789e-012 -10.2786 0.731801 -0.0259123 2.54623e-011 -1.12393e-012 1.57756e-012 -2.22167 -0.733487 0.20892 -2.03217e-016 0 -3.88251e-019 -0.640535 -1.92323 -0.00643636 -0.00925468 -2.07856 -0.0764282 -0.512156 3.99733 0.140312 2.03217e-016 0 3.88251e-019 -1.66973 -6.49782 0.154696 -0.0023106 6.208 -0.0679833 0.534043 0.285488 -0.0665678 
-35.6679 82.0334 1.00368 -2.82022 13.1379 -26.5061 -0.680379 1.69929 0.786303 1.25529 0.74398 0.180131 0.48161 0.605564 -0.903678 -0.948714 7.01844 -0.717323 -0 0 0 -0 0 0 2.57198e-014 4.48743e-013 -1.25494e-014 24.1157 10.2837 7.83455 -3.28332 -1.34427 5.27737 0.19322 -9.77839 -1.30312 2.87707e-010 1.0421e-010 9.55082e-011 4.95748e-010 1.80247e-010 1.71943e-010 2.87713e-010 1.0421e-010 9.5496e-011 7.73091 5.47488 0.417314 2.87707e-010 1.0421e-010 9.55106e-011 2.90554 0.965183 0.102902 2.87713e-010 1.0421e-010 9.55084e-011 10.2786 0.731801 0.0259123 2.87702e-010 1.04211e-010 9.55176e-011 2.22167 -0.733487 -0.20892 2.56576e-014 4.4875e-013 -1.28985e-014 -24.7262 22.9149 -7.9436 5.04563 -2.48515 -7.66055 -0.356388 -13.3113 1.69363 2.05452e-010 1.56676e-010 -1.8245e-010 3.61075e-010 2.58888e-010 -3.07468e-010 2.0545e-010 1.56681e-010 -1.82444e-010 -7.73091 5.47488 -0.417314 2.05454e-010 1.56679e-010 -1.82457e-010 -2.90554 0.965183 -0.102902 2.05447e-010 1.56682e-010 -1.82449e-010 -10.2786 0.731801 -0.0259123 2.05457e-010 1.56682e-010 -1.82457e-010 -2.22167 -0.733487 0.20892 -2.03217e-016 0 -3.88251e-019 -3.36325 -9.20806 -0.355315 -0.0120915 4.70665 0.0242572 -0.627261 2.14375 -3.91067 2.03217e-016 0 3.88251e-019 2.85835 -13.8327 1.47742 -0.0237719 12.218 -0.186601 0.376883 -1.39608 0.299317 
-35.6723 82.0319 0.995059 4.47751 17.5652 -56.8625 0.150806 3.49711 1.66138 3.02459 1.52943 0.446522 1.00611 1.245 -1.85895 -1.75534 14.4331 -1.51066 -0 0 0 -0 0 0 5.04336e-014 9.44152e-013 -2.71869e-014 46.4019 20.5101 16.9593 -6.48823 -2.72853 10.8688 -0.114768 -20.1147 -2.81548 5.86502e-010 2.01046e-010 1.65148e-010 1.01126e-009 3.48114e-010 3.00311e-010 5.86508e-010 2.01046e-010 1.65136e-010 7.73091 5.47488 0.417314 5.86502e-010 2.01046e-010 1.6515e-010 2.90554 0.965183 0.102902 5.86506e-010 2.01046e-010 1.65148e-010 10.2786 0.731801 0.0259123 5.86497e-010 2.01048e-010 1.65157e-010 2.22167 -0.733487 -0.20892 5.04094e-014 9.44164e-013 -2.75379e-014 -41.4312 45.4359 -21.7079 9.66351 -4.96402 -15.8043 0.219717 -27.3299 3.81566 3.92633e-010 3.10631e-010 -3.59977e-010 6.90414e-010 5.13041e-010 -6.06251e-010 3.92633e-010 3.10642e-010 -3.5997e-010 -7.73091 5.47488 -0.417314 3.92638e-010 3.10636e-010 -3.59983e-010 -2.90554 0.965183 -0.102902 3.92627e-010 3.10643e-010 -3.59974e-010 -10.2786 0.731801 -0.0259123 3.92636e-010 3.10643e-010 -3.59981e-010 -2.22167 -0.733487 0.20892 -2.03217e-016 0 -3.88251e-019 -6.34214 -16.9069 -0.746008 -0.0413714 11.8782 0.133306 -1.03286 0.193625 -8.18766 2.03217e-016 0 3.88251e-019 8.03979 -21.5675 2.99741 -0.017898 18.571 -0.320404 0.234351 -3.17335 0.688479 
-35.6751 82.0321 0.981516 12.9603 8.80219 -80.7234 0.849418 5.09936 2.45036 4.5836 2.22974 0.685889 1.50214 1.81489 -2.71224 -2.28704 21.0416 -2.28851 -0 0 0 -0 0 0 7.15974e-014 1.34646e-012 -3.82447e-014 63.2227 28.3935 26.5144 -9.11613 -3.89617 15.8654 -0.919331 -29.2699 -4.41745 8.12238e-010 3.14909e-010 2.83363e-010 1.39938e-009 5.44673e-010 5.10371e-010 8.12245e-010 3.14908e-010 2.83352e-010 7.73091 5.47488 0.417314 8.12238e-010 3.14908e-010 2.83364e-010 2.90554 0.965183 0.102902 8.12241e-010 3.14908e-010 2.83364e-010 10.2786 0.731801 0.0259123 8.12233e-010 3.14911e-010 2.83372e-010 2.22167 -0.733487 -0.20892 7.16013e-014 1.34648e-012 -3.85961e-014 -38.7693 60.2194 -48.7855 13.1906 -6.92352 -23.1383 1.88995 -39.7725 6.43856 5.65446e-010 4.72277e-010 -5.50525e-010 9.95286e-010 7.80551e-010 -9.27892e-010 5.65447e-010 4.72294e-010 -5.50519e-010 -7.73091 5.47488 -0.417314 5.65454e-010 4.72285e-010 -5.50532e-010 -2.90554 0.965183 -0.102902 5.65439e-010 4.72295e-010 -5.50522e-010 -10.2786 0.731801 -0.0259123 5.65448e-010 4.72295e-010 -5.50527e-010 -2.22167 -0.733487 0.20892 -2.03217e-016 0 -3.88251e-019 -9.09643 -23.7741 -1.13573 -0.0917425 18.2769 0.237251 -1.63869 -1.51459 -12.008 2.03217e-016 0 3.88251e-019 13.058 -28.4399 4.54585 0.0150033 24.2376 -0.451777 0.127166 -4.75851 1.03438 
